<svg width="48" height="48" viewBox="0 0 48 48" fill="none" xmlns="http://www.w3.org/2000/svg">
<path d="M3 21.2147L3 23.5233L23 32L23 30.0146L17.6417 27.7913L17.6417 27.7762L15.9222 27.0174L4.89122 22.5125L15.9222 18.0368L15.9222 18.0469L17.6417 17.3563L23 15.133L23 13L3 21.2147Z" fill="#D1D5DB"/>
<path d="M23 25.2147L23 27.5233L3 36L3 34.0146L8.35831 31.7913L8.35831 31.7762L10.0778 31.0174L21.1088 26.5125L10.0778 22.0368L10.0778 22.0469L8.35831 21.3563L3 19.133L3 17L23 25.2147Z" fill="#D1D5DB"/>
<path d="M29.2147 32H31.5233L40 12H38.0146L35.7913 17.3583H35.7762L35.0174 19.0778L30.5125 30.1088L26.0368 19.0778H26.0469L25.3563 17.3583L23.133 12H21L29.2147 32Z" fill="#D1D5DB"/>
<path d="M34.2147 32H36.5233L45 12H43.0146L40.7913 17.3583H40.7762L40.0174 19.0778L35.5125 30.1088L31.0368 19.0778H31.0469L30.3563 17.3583L28.133 12H26L34.2147 32Z" fill="#D1D5DB"/>
</svg>
