<svg width="24" height="24" viewBox="0 0 24 24" fill="none" xmlns="http://www.w3.org/2000/svg">
<path fill-rule="evenodd" clip-rule="evenodd" d="M24 12C24 18.6274 18.6274 24 12 24C5.37258 24 0 18.6274 0 12C0 5.37258 5.37258 0 12 0C18.6274 0 24 5.37258 24 12ZM9.8947 6.69987C9.46751 6.60867 8.99519 6.56259 8.47775 6.56259H3.35999V17.4384H8.63135C9.11135 17.4394 9.59039 17.378 10.055 17.256C10.5168 17.1341 10.9277 16.9469 11.2886 16.6925C11.6496 16.4391 11.9366 16.1117 12.1497 15.7104C12.3629 15.3092 12.4694 14.834 12.4694 14.2858C12.4694 13.6052 12.3043 13.0234 11.9741 12.5415C11.6438 12.0596 11.1437 11.7216 10.4736 11.5287C10.9603 11.2954 11.3289 10.9959 11.5776 10.6301C11.8262 10.2644 11.951 9.80739 11.951 9.25923C11.951 8.75139 11.8675 8.32515 11.6995 7.97955C11.5315 7.63395 11.2953 7.35747 10.991 7.14915C10.6867 6.94083 10.3219 6.79107 9.8947 6.69987ZM9.22463 10.6599C8.95007 10.8624 8.59967 10.9642 8.17343 10.9642L5.75231 10.9661V8.42211H7.99007C8.19743 8.42115 8.40383 8.43939 8.60735 8.47491C8.80511 8.51043 8.97983 8.57379 9.13247 8.66499C9.28511 8.75619 9.40703 8.88387 9.49823 9.04611C9.58943 9.20835 9.63551 9.41667 9.63551 9.67011C9.63647 10.1271 9.49919 10.4564 9.22463 10.6599ZM8.98079 15.5108C8.76095 15.5568 8.53631 15.5799 8.31071 15.5789L5.75231 15.5799V12.5943H8.35679C8.87423 12.5943 9.29086 12.7133 9.60575 12.9524C9.92063 13.1904 10.0781 13.5898 10.0781 14.1476C10.0781 14.4317 10.0291 14.666 9.93311 14.8484C9.83615 15.0308 9.70655 15.1757 9.54431 15.2823C9.38207 15.3888 9.19391 15.4647 8.98079 15.5108ZM16.8797 15.8228C16.2701 15.8228 15.8025 15.6653 15.4781 15.3504C15.1536 15.0365 14.976 14.5287 14.9462 13.8308H20.6275C20.6678 13.2212 20.6169 12.6375 20.4749 12.0788C20.3328 11.52 20.1014 11.0228 19.7817 10.586C19.4621 10.1492 19.0531 9.80163 18.5558 9.54243C18.0576 9.28323 17.4739 9.15363 16.8038 9.15363C16.2048 9.15363 15.6585 9.26019 15.1661 9.47331C14.6736 9.68643 14.2493 9.97827 13.8941 10.3488C13.5389 10.7194 13.2643 11.1581 13.0713 11.666C12.8784 12.1738 12.7824 12.722 12.7824 13.3104C12.7824 13.9191 12.8765 14.4778 13.0637 14.9856C13.2509 15.4935 13.5177 15.9293 13.8633 16.2951C14.2089 16.6608 14.6304 16.9431 15.1277 17.1408C15.6249 17.3386 16.1837 17.4375 16.8029 17.4375C17.6966 17.4375 18.4579 17.234 19.0877 16.8279C19.7174 16.4218 20.1849 15.7469 20.4893 14.8023H18.5856C18.5145 15.0461 18.3216 15.2775 18.0067 15.4954C17.6918 15.7133 17.3165 15.8228 16.8797 15.8228ZM16.7424 10.7818C17.2704 10.7818 17.664 10.9239 17.9232 11.208C18.1814 11.4922 18.3619 11.9088 18.4646 12.456H14.9462C14.9558 12.3044 14.9894 12.1316 15.0451 11.9386C15.1008 11.7456 15.1968 11.5632 15.3341 11.3904C15.4713 11.2176 15.6537 11.0736 15.8822 10.9565C16.1097 10.8404 16.3968 10.7818 16.7424 10.7818ZM18.9715 7.11459H14.5757V8.33379H18.9715V7.11459Z" fill="#202020"/>
</svg>
