<svg width="32" height="22" viewBox="0 0 32 22" fill="none" xmlns="http://www.w3.org/2000/svg">
    <path d="M28.0913 0H3.90873C1.75355 0 0 1.75355 0 3.90873V17.8156C0 19.9708 1.75355 21.7243 3.90873 21.7243H28.0913C30.2464 21.7243 32 19.9708 32 17.8156V3.90916C32.0004 1.75355 30.2469 0 28.0913 0ZM26.1813 2.55L16 9.10946L5.81868 2.55H26.1813ZM28.0913 19.1748H3.90873C3.15945 19.1748 2.55 18.5649 2.55 17.816V3.98141L15.2133 12.1244C15.2303 12.135 15.2486 12.1423 15.266 12.152C15.2843 12.1622 15.303 12.172 15.3217 12.1814C15.4199 12.2319 15.521 12.2727 15.6243 12.2995C15.6349 12.3025 15.6456 12.3038 15.6562 12.3063C15.7697 12.3331 15.8844 12.3497 15.9992 12.3497H16C16.0008 12.3497 16.0017 12.3497 16.0017 12.3497C16.1165 12.3497 16.2312 12.3335 16.3447 12.3063C16.3553 12.3038 16.3659 12.3025 16.3766 12.2995C16.4798 12.2727 16.5806 12.2319 16.6792 12.1814C16.6979 12.172 16.7166 12.1622 16.7348 12.152C16.7523 12.1423 16.7705 12.135 16.7875 12.1244L29.4508 3.98141V17.8156C29.4504 18.5649 28.8405 19.1748 28.0913 19.1748Z" fill="#202020"/>
</svg>
