<svg width="17" height="13" viewBox="0 0 17 13" fill="none" xmlns="http://www.w3.org/2000/svg">
<path d="M5.136 0L6.768 1.44C6.192 1.984 5.664 2.576 5.184 3.216C4.704 3.856 4.32 4.464 4.032 5.04C3.776 5.584 3.648 6.064 3.648 6.48C3.648 6.8 3.76 7.104 3.984 7.392C4.24 7.68 4.528 7.952 4.848 8.208C5.2 8.464 5.488 8.752 5.712 9.072C5.968 9.392 6.096 9.76 6.096 10.176C6.096 10.976 5.824 11.648 5.28 12.192C4.768 12.736 4.096 13.008 3.264 13.008C2.432 13.008 1.68 12.64 1.008 11.904C0.336 11.168 0 10.208 0 9.024C0 8.16 0.192 7.264 0.576 6.336C0.96 5.376 1.536 4.368 2.304 3.312C3.072 2.256 4.016 1.152 5.136 0ZM14.976 0L16.608 1.44C16.032 1.984 15.504 2.576 15.024 3.216C14.544 3.856 14.16 4.464 13.872 5.04C13.616 5.584 13.488 6.064 13.488 6.48C13.488 6.8 13.6 7.104 13.824 7.392C14.08 7.68 14.368 7.952 14.688 8.208C15.04 8.464 15.328 8.752 15.552 9.072C15.808 9.392 15.936 9.76 15.936 10.176C15.936 10.976 15.664 11.648 15.12 12.192C14.608 12.736 13.936 13.008 13.104 13.008C12.272 13.008 11.52 12.64 10.848 11.904C10.176 11.168 9.84 10.208 9.84 9.024C9.84 8.16 10.032 7.264 10.416 6.336C10.8 5.376 11.376 4.368 12.144 3.312C12.912 2.256 13.856 1.152 14.976 0Z" fill="#d1d5db"/>
</svg>
