<svg width="32" height="32" viewBox="0 0 32 32" fill="none" xmlns="http://www.w3.org/2000/svg">
<rect width="32" height="32" fill="#BF5050"/>
<path d="M1 15.6178V17.198L15.9985 23V21.6411L11.9809 20.1193V20.1117L10.6907 19.5923L2.41827 16.5089L10.6922 13.4475V13.4544L11.9824 12.9817L16 11.4599V10L1 15.6178Z" fill="#D1D5DB"/>
<path d="M16 20.3822V18.8026L1 13V14.3584L5.018 15.8796V15.89L6.30834 16.4092L14.5816 19.4914L6.30834 22.5538V22.5469L5.018 23.0194L1 24.5406V26L16 20.3822Z" fill="#D1D5DB"/>
<path d="M20.0529 23H21.754L28 8H26.5371L24.8988 12.0187H24.8877L24.3286 13.3083L21.0092 21.5816L17.7113 13.3083H17.7187L17.2099 12.0187L15.5717 8H14L20.0529 23Z" fill="#D1D5DB"/>
<path d="M23.0529 23H24.754L31 8H29.5371L27.8988 12.0185H27.8877L27.3286 13.3081L24.0092 21.5809L20.7113 13.3081H20.7187L20.2099 12.0185L18.5717 8H17L23.0529 23Z" fill="#D1D5DB"/>
</svg>
