<svg xmlns="http://www.w3.org/2000/svg" 
        fill="none" 
        viewBox="0 0 42 25">
            <path d="M0.00302124 10.069V12.369L20.614 20.814V18.836L15.093 16.621V16.61L13.32 15.854L1.952 11.366L13.322 6.90999V6.92L15.095 6.23201L20.616 4.01701V1.89201L0.00302124 10.069Z" fill="#d1d5db"/>
            <path d="M20.611 16.359V14.059L0 5.61V7.588L5.521 9.80299V9.81801L7.29401 10.574L18.662 15.062L7.29401 19.521V19.511L5.521 20.199L0 22.414V24.539L20.611 16.359Z" fill="#d1d5db"/>
            <path d="M25.829 20.61H28.129L36.574 -0.000991821H34.596L32.381 5.52101H32.366L31.61 7.29301L27.122 18.661L22.663 7.29301H22.673L21.985 5.52101L19.77 -0.000991821H17.645L25.829 20.61Z" fill="#d1d5db"/>
            <path d="M31.031 20.685H33.331L41.776 0.0730133H39.798L37.583 5.59499H37.568L36.812 7.36699L32.324 18.735L27.865 7.36699H27.875L27.187 5.59499L24.972 0.0730133H22.847L31.031 20.685Z" fill="#d1d5db"/>
</svg>

